<svg width="1440" height="1024" viewBox="0 0 1440 1024" fill="none" xmlns="http://www.w3.org/2000/svg">
<g clip-path="url(#clip0)">
<rect width="1440" height="1024" fill="#396EBC"/>
<path d="M674.042 -122.786L1654.98 1352.08C1656.39 1354.2 1658.39 1355.75 1660.68 1356.5L1833.21 1412.92C1843.66 1416.34 1852.37 1402.8 1845.94 1393.14L693.634 -339.393C687.206 -349.058 673.125 -343.589 673.055 -331.399L671.896 -130.162C671.881 -127.489 672.632 -124.906 674.042 -122.786Z" fill="#22B970"/>
<rect x="825.259" y="401.915" width="338.587" height="212.73" rx="16" fill="#C4C4C4"/>
<path d="M1154.8 624.469H834.31C829.228 624.469 824.697 627.67 822.999 632.461L795.93 708.845C793.162 716.655 798.955 724.853 807.241 724.853H1181.86C1190.15 724.853 1195.94 716.655 1193.18 708.845L1166.11 632.461C1164.41 627.67 1159.88 624.469 1154.8 624.469Z" fill="#C4C4C4" stroke="#C4C4C4"/>
<path d="M860.488 681.711H1127.24C1131.57 681.711 1135.56 679.375 1137.69 675.601L1153.77 647.059C1158.28 639.06 1152.5 629.169 1143.31 629.169H844.409C835.227 629.169 829.447 639.06 833.954 647.059L850.033 675.601C852.16 679.376 856.156 681.711 860.488 681.711Z" fill="#858585" stroke="#C4C4C4"/>
<path d="M983.057 714.175H1016.1C1021.81 714.175 1026.73 710.156 1027.86 704.564L1028.54 701.225C1030.05 693.79 1024.37 686.837 1016.78 686.837H982.379C974.792 686.837 969.109 693.79 970.619 701.225L971.297 704.564C972.433 710.156 977.35 714.175 983.057 714.175Z" fill="#858585" stroke="#C4C4C4"/>
<path d="M825.259 619.343C825.259 616.748 827.363 614.644 829.958 614.644H1159.15C1161.74 614.644 1163.85 616.748 1163.85 619.343C1163.85 621.938 1161.74 624.042 1159.15 624.042H829.958C827.363 624.042 825.259 621.938 825.259 619.343Z" fill="#A59F9F"/>
<rect x="838.775" y="423.701" width="311.556" height="174.285" rx="16" fill="#564949"/>
<ellipse cx="999.408" cy="413.236" rx="4.33197" ry="5.3396" fill="#5E5E5E"/>
<rect x="838.775" y="407.896" width="101.195" height="5.98035" rx="2.99018" fill="#928A8A"/>
<rect x="1049.14" y="407.896" width="101.195" height="5.98035" rx="2.99018" fill="#928A8A"/>
<rect x="561" y="311" width="99" height="160" rx="5" fill="#C4C4C4"/>
<circle cx="577.5" cy="315.5" r="2.5" fill="#5E5E5E"/>
<rect x="562" y="323" width="97" height="137" rx="4" fill="#564949"/>
<rect x="606" y="313" width="10" height="4" rx="2" fill="#737373"/>
<path d="M614.157 488C600.455 516.396 581.273 577.656 614.157 595.525C655.264 617.861 720.066 597.083 729.738 578.383C739.41 559.683 753.918 488 710.394 508.258C675.575 524.465 659.455 546.524 655.747 555.528C642.851 578.383 622.475 627.419 644.141 640.717C665.806 654.014 705.719 646.257 722.968 640.717C739.088 630.674 772.102 606.226 775.197 588.772C778.292 571.319 764.88 564.185 757.787 562.8C735.219 561.934 689.696 569.449 688.148 606.433C686.601 643.418 749.405 667.555 781 675" stroke="#D74545" stroke-width="5"/>
<path d="M604 492.091V472C604 471.448 604.448 471 605 471H617C617.552 471 618 471.448 618 472V492.091C618 492.643 617.552 493.091 617 493.091H614.37V497C614.37 497.552 613.923 498 613.37 498H608.63C608.077 498 607.63 497.552 607.63 497V493.091H605C604.448 493.091 604 492.643 604 492.091Z" fill="#ECECEC"/>
<path d="M786.293 671.241L805.231 677.947C805.752 678.131 806.025 678.703 805.84 679.224L801.835 690.535C801.65 691.056 801.079 691.328 800.558 691.144L781.62 684.438C781.099 684.253 780.826 683.682 781.011 683.161L781.889 680.682L778.204 679.378C777.683 679.193 777.411 678.622 777.595 678.101L779.177 673.632C779.362 673.112 779.933 672.839 780.454 673.023L784.139 674.328L785.016 671.849C785.201 671.329 785.772 671.056 786.293 671.241Z" fill="#ECECEC"/>
<path d="M864.523 459.704C864.523 459.165 864.333 458.711 863.952 458.342C863.577 457.973 862.941 457.639 862.045 457.34C860.797 456.959 859.886 456.464 859.312 455.854C858.743 455.239 858.459 454.46 858.459 453.517C858.459 452.556 858.737 451.768 859.294 451.152C859.856 450.537 860.627 450.171 861.605 450.054V448.129H862.915V450.062C863.899 450.197 864.664 450.61 865.209 451.302C865.76 451.993 866.035 452.939 866.035 454.141H864.418C864.418 453.314 864.222 452.658 863.829 452.172C863.437 451.686 862.906 451.442 862.238 451.442C861.541 451.442 861.008 451.624 860.639 451.987C860.27 452.345 860.085 452.846 860.085 453.49C860.085 454.088 860.278 454.565 860.665 454.923C861.058 455.274 861.699 455.597 862.59 455.89C863.486 456.177 864.184 456.496 864.682 456.848C865.186 457.193 865.555 457.598 865.789 458.061C866.029 458.523 866.149 459.065 866.149 459.687C866.149 460.677 865.851 461.474 865.253 462.077C864.661 462.681 863.829 463.038 862.757 463.149V464.828H861.456V463.149C860.366 463.05 859.511 462.663 858.89 461.989C858.274 461.31 857.967 460.39 857.967 459.229H859.593C859.593 460.044 859.807 460.671 860.234 461.11C860.662 461.55 861.269 461.77 862.054 461.77C862.821 461.77 863.425 461.585 863.864 461.216C864.304 460.847 864.523 460.343 864.523 459.704ZM872.838 462.147C872.838 461.866 872.92 461.632 873.084 461.444C873.254 461.257 873.506 461.163 873.84 461.163C874.174 461.163 874.426 461.257 874.596 461.444C874.771 461.632 874.859 461.866 874.859 462.147C874.859 462.417 874.771 462.643 874.596 462.824C874.426 463.006 874.174 463.097 873.84 463.097C873.506 463.097 873.254 463.006 873.084 462.824C872.92 462.643 872.838 462.417 872.838 462.147ZM877.874 464.099H876.477L881.82 450.203H883.209L877.874 464.099ZM890.504 460.478C890.504 460.038 890.337 459.698 890.003 459.458C889.675 459.212 889.098 459.001 888.271 458.825C887.451 458.649 886.798 458.438 886.312 458.192C885.831 457.946 885.474 457.653 885.239 457.313C885.011 456.974 884.896 456.569 884.896 456.101C884.896 455.321 885.225 454.662 885.881 454.123C886.543 453.584 887.387 453.314 888.412 453.314C889.49 453.314 890.363 453.593 891.031 454.149C891.705 454.706 892.042 455.418 892.042 456.285H890.407C890.407 455.84 890.217 455.456 889.836 455.134C889.461 454.812 888.986 454.65 888.412 454.65C887.82 454.65 887.357 454.779 887.023 455.037C886.689 455.295 886.522 455.632 886.522 456.048C886.522 456.44 886.678 456.736 886.988 456.936C887.299 457.135 887.858 457.325 888.667 457.507C889.481 457.688 890.141 457.905 890.645 458.157C891.148 458.409 891.521 458.714 891.761 459.071C892.007 459.423 892.13 459.854 892.13 460.363C892.13 461.213 891.79 461.896 891.11 462.411C890.431 462.921 889.549 463.176 888.465 463.176C887.703 463.176 887.029 463.041 886.443 462.771C885.857 462.502 885.397 462.127 885.063 461.646C884.735 461.16 884.571 460.636 884.571 460.073H886.197C886.227 460.618 886.443 461.052 886.848 461.374C887.258 461.69 887.797 461.849 888.465 461.849C889.08 461.849 889.572 461.726 889.941 461.479C890.316 461.228 890.504 460.894 890.504 460.478ZM896.454 451.188V453.49H898.229V454.747H896.454V460.645C896.454 461.025 896.533 461.312 896.691 461.506C896.85 461.693 897.119 461.787 897.5 461.787C897.688 461.787 897.945 461.752 898.273 461.682V463C897.846 463.117 897.43 463.176 897.025 463.176C896.299 463.176 895.751 462.956 895.382 462.517C895.013 462.077 894.828 461.453 894.828 460.645V454.747H893.097V453.49H894.828V451.188H896.454ZM906.008 463C905.914 462.812 905.838 462.479 905.779 461.998C905.023 462.783 904.121 463.176 903.072 463.176C902.135 463.176 901.364 462.912 900.761 462.385C900.163 461.852 899.864 461.178 899.864 460.363C899.864 459.373 900.239 458.605 900.989 458.061C901.745 457.51 902.806 457.234 904.171 457.234H905.753V456.487C905.753 455.919 905.583 455.468 905.243 455.134C904.903 454.794 904.402 454.624 903.74 454.624C903.16 454.624 902.674 454.771 902.281 455.063C901.889 455.356 901.692 455.711 901.692 456.127H900.058C900.058 455.652 900.225 455.195 900.559 454.756C900.898 454.311 901.355 453.959 901.93 453.701C902.51 453.443 903.146 453.314 903.837 453.314C904.933 453.314 905.791 453.59 906.412 454.141C907.033 454.686 907.355 455.438 907.379 456.399V460.776C907.379 461.649 907.49 462.344 907.713 462.859V463H906.008ZM903.31 461.761C903.819 461.761 904.303 461.629 904.76 461.365C905.217 461.102 905.548 460.759 905.753 460.337V458.386H904.479C902.486 458.386 901.49 458.969 901.49 460.135C901.49 460.645 901.66 461.043 902 461.33C902.34 461.617 902.776 461.761 903.31 461.761ZM914.524 454.949C914.278 454.908 914.012 454.888 913.725 454.888C912.658 454.888 911.935 455.342 911.554 456.25V463H909.928V453.49H911.51L911.536 454.589C912.069 453.739 912.825 453.314 913.804 453.314C914.12 453.314 914.36 453.355 914.524 453.438V454.949ZM918.673 451.188V453.49H920.448V454.747H918.673V460.645C918.673 461.025 918.752 461.312 918.91 461.506C919.068 461.693 919.338 461.787 919.719 461.787C919.906 461.787 920.164 461.752 920.492 461.682V463C920.064 463.117 919.648 463.176 919.244 463.176C918.518 463.176 917.97 462.956 917.601 462.517C917.231 462.077 917.047 461.453 917.047 460.645V454.747H915.315V453.49H917.047V451.188H918.673ZM922.391 462.147C922.391 461.866 922.473 461.632 922.637 461.444C922.807 461.257 923.059 461.163 923.393 461.163C923.727 461.163 923.979 461.257 924.148 461.444C924.324 461.632 924.412 461.866 924.412 462.147C924.412 462.417 924.324 462.643 924.148 462.824C923.979 463.006 923.727 463.097 923.393 463.097C923.059 463.097 922.807 463.006 922.637 462.824C922.473 462.643 922.391 462.417 922.391 462.147ZM932.639 460.478C932.639 460.038 932.472 459.698 932.138 459.458C931.81 459.212 931.232 459.001 930.406 458.825C929.586 458.649 928.933 458.438 928.446 458.192C927.966 457.946 927.608 457.653 927.374 457.313C927.146 456.974 927.031 456.569 927.031 456.101C927.031 455.321 927.359 454.662 928.016 454.123C928.678 453.584 929.521 453.314 930.547 453.314C931.625 453.314 932.498 453.593 933.166 454.149C933.84 454.706 934.177 455.418 934.177 456.285H932.542C932.542 455.84 932.352 455.456 931.971 455.134C931.596 454.812 931.121 454.65 930.547 454.65C929.955 454.65 929.492 454.779 929.158 455.037C928.824 455.295 928.657 455.632 928.657 456.048C928.657 456.44 928.812 456.736 929.123 456.936C929.434 457.135 929.993 457.325 930.802 457.507C931.616 457.688 932.275 457.905 932.779 458.157C933.283 458.409 933.655 458.714 933.896 459.071C934.142 459.423 934.265 459.854 934.265 460.363C934.265 461.213 933.925 461.896 933.245 462.411C932.565 462.921 931.684 463.176 930.6 463.176C929.838 463.176 929.164 463.041 928.578 462.771C927.992 462.502 927.532 462.127 927.198 461.646C926.87 461.16 926.706 460.636 926.706 460.073H928.332C928.361 460.618 928.578 461.052 928.982 461.374C929.393 461.69 929.932 461.849 930.6 461.849C931.215 461.849 931.707 461.726 932.076 461.479C932.451 461.228 932.639 460.894 932.639 460.478ZM938.009 454.642C938.729 453.757 939.667 453.314 940.821 453.314C942.831 453.314 943.845 454.448 943.862 456.716V463H942.236V456.707C942.23 456.021 942.072 455.515 941.762 455.187C941.457 454.858 940.979 454.694 940.329 454.694C939.802 454.694 939.339 454.835 938.94 455.116C938.542 455.397 938.231 455.767 938.009 456.224V463H936.383V449.5H938.009V454.642ZM864.523 564.704C864.523 564.165 864.333 563.711 863.952 563.342C863.577 562.973 862.941 562.639 862.045 562.34C860.797 561.959 859.886 561.464 859.312 560.854C858.743 560.239 858.459 559.46 858.459 558.517C858.459 557.556 858.737 556.768 859.294 556.152C859.856 555.537 860.627 555.171 861.605 555.054V553.129H862.915V555.062C863.899 555.197 864.664 555.61 865.209 556.302C865.76 556.993 866.035 557.939 866.035 559.141H864.418C864.418 558.314 864.222 557.658 863.829 557.172C863.437 556.686 862.906 556.442 862.238 556.442C861.541 556.442 861.008 556.624 860.639 556.987C860.27 557.345 860.085 557.846 860.085 558.49C860.085 559.088 860.278 559.565 860.665 559.923C861.058 560.274 861.699 560.597 862.59 560.89C863.486 561.177 864.184 561.496 864.682 561.848C865.186 562.193 865.555 562.598 865.789 563.061C866.029 563.523 866.149 564.065 866.149 564.687C866.149 565.677 865.851 566.474 865.253 567.077C864.661 567.681 863.829 568.038 862.757 568.149V569.828H861.456V568.149C860.366 568.05 859.511 567.663 858.89 566.989C858.274 566.31 857.967 565.39 857.967 564.229H859.593C859.593 565.044 859.807 565.671 860.234 566.11C860.662 566.55 861.269 566.77 862.054 566.77C862.821 566.77 863.425 566.585 863.864 566.216C864.304 565.847 864.523 565.343 864.523 564.704ZM876.749 568.176C875.46 568.176 874.411 567.754 873.603 566.91C872.794 566.061 872.39 564.927 872.39 563.509V563.21C872.39 562.267 872.568 561.426 872.926 560.688C873.289 559.943 873.793 559.363 874.438 558.947C875.088 558.525 875.791 558.314 876.547 558.314C877.783 558.314 878.744 558.722 879.43 559.536C880.115 560.351 880.458 561.517 880.458 563.034V563.711H874.016C874.039 564.648 874.312 565.407 874.833 565.987C875.36 566.562 876.028 566.849 876.837 566.849C877.411 566.849 877.897 566.731 878.296 566.497C878.694 566.263 879.043 565.952 879.342 565.565L880.335 566.339C879.538 567.563 878.343 568.176 876.749 568.176ZM876.547 559.65C875.891 559.65 875.34 559.891 874.895 560.371C874.449 560.846 874.174 561.514 874.068 562.375H878.832V562.252C878.785 561.426 878.562 560.787 878.164 560.336C877.766 559.879 877.227 559.65 876.547 559.65ZM885.538 561.962L887.647 558.49H889.546L886.435 563.192L889.643 568H887.762L885.564 564.44L883.367 568H881.478L884.686 563.192L881.574 558.49H883.455L885.538 561.962ZM893.044 568H891.418V558.49H893.044V568ZM891.286 555.968C891.286 555.704 891.365 555.481 891.523 555.3C891.688 555.118 891.928 555.027 892.244 555.027C892.561 555.027 892.801 555.118 892.965 555.3C893.129 555.481 893.211 555.704 893.211 555.968C893.211 556.231 893.129 556.451 892.965 556.627C892.801 556.803 892.561 556.891 892.244 556.891C891.928 556.891 891.688 556.803 891.523 556.627C891.365 556.451 891.286 556.231 891.286 555.968ZM897.86 556.188V558.49H899.636V559.747H897.86V565.645C897.86 566.025 897.939 566.312 898.098 566.506C898.256 566.693 898.525 566.787 898.906 566.787C899.094 566.787 899.352 566.752 899.68 566.682V568C899.252 568.117 898.836 568.176 898.432 568.176C897.705 568.176 897.157 567.956 896.788 567.517C896.419 567.077 896.234 566.453 896.234 565.645V559.747H894.503V558.49H896.234V556.188H897.86Z" fill="#71C703"/>
<path d="M863.987 478.287L858.178 476.011V474.341L865.684 477.663V478.946L858.178 482.277V480.59L863.987 478.287ZM873.392 478.287L867.582 476.011V474.341L875.088 477.663V478.946L867.582 482.277V480.59L873.392 478.287ZM882.796 478.287L876.986 476.011V474.341L884.492 477.663V478.946L876.986 482.277V480.59L882.796 478.287ZM894.854 484.176C893.565 484.176 892.517 483.754 891.708 482.91C890.899 482.061 890.495 480.927 890.495 479.509V479.21C890.495 478.267 890.674 477.426 891.031 476.688C891.395 475.943 891.898 475.363 892.543 474.947C893.193 474.525 893.896 474.314 894.652 474.314C895.889 474.314 896.85 474.722 897.535 475.536C898.221 476.351 898.563 477.517 898.563 479.034V479.711H892.121C892.145 480.648 892.417 481.407 892.938 481.987C893.466 482.562 894.134 482.849 894.942 482.849C895.517 482.849 896.003 482.731 896.401 482.497C896.8 482.263 897.148 481.952 897.447 481.565L898.44 482.339C897.644 483.563 896.448 484.176 894.854 484.176ZM894.652 475.65C893.996 475.65 893.445 475.891 893 476.371C892.555 476.846 892.279 477.514 892.174 478.375H896.938V478.252C896.891 477.426 896.668 476.787 896.27 476.336C895.871 475.879 895.332 475.65 894.652 475.65ZM903.644 477.962L905.753 474.49H907.651L904.54 479.192L907.748 484H905.867L903.67 480.44L901.473 484H899.583L902.791 479.192L899.68 474.49H901.561L903.644 477.962ZM913.153 484.176C911.864 484.176 910.815 483.754 910.007 482.91C909.198 482.061 908.794 480.927 908.794 479.509V479.21C908.794 478.267 908.973 477.426 909.33 476.688C909.693 475.943 910.197 475.363 910.842 474.947C911.492 474.525 912.195 474.314 912.951 474.314C914.188 474.314 915.148 474.722 915.834 475.536C916.52 476.351 916.862 477.517 916.862 479.034V479.711H910.42C910.443 480.648 910.716 481.407 911.237 481.987C911.765 482.562 912.433 482.849 913.241 482.849C913.815 482.849 914.302 482.731 914.7 482.497C915.099 482.263 915.447 481.952 915.746 481.565L916.739 482.339C915.942 483.563 914.747 484.176 913.153 484.176ZM912.951 475.65C912.295 475.65 911.744 475.891 911.299 476.371C910.854 476.846 910.578 477.514 910.473 478.375H915.236V478.252C915.189 477.426 914.967 476.787 914.568 476.336C914.17 475.879 913.631 475.65 912.951 475.65ZM922.566 482.849C923.146 482.849 923.653 482.673 924.087 482.321C924.521 481.97 924.761 481.53 924.808 481.003H926.346C926.316 481.548 926.129 482.066 925.783 482.559C925.438 483.051 924.975 483.443 924.395 483.736C923.82 484.029 923.211 484.176 922.566 484.176C921.271 484.176 920.24 483.745 919.473 482.884C918.711 482.017 918.33 480.833 918.33 479.333V479.061C918.33 478.135 918.5 477.312 918.84 476.591C919.18 475.87 919.666 475.311 920.299 474.912C920.938 474.514 921.69 474.314 922.558 474.314C923.624 474.314 924.509 474.634 925.212 475.272C925.921 475.911 926.299 476.74 926.346 477.76H924.808C924.761 477.145 924.526 476.641 924.104 476.248C923.688 475.85 923.173 475.65 922.558 475.65C921.731 475.65 921.09 475.949 920.633 476.547C920.182 477.139 919.956 477.997 919.956 479.122V479.43C919.956 480.525 920.182 481.369 920.633 481.961C921.084 482.553 921.729 482.849 922.566 482.849ZM934.045 483.06C933.412 483.804 932.483 484.176 931.259 484.176C930.245 484.176 929.472 483.883 928.938 483.297C928.411 482.705 928.145 481.832 928.139 480.678V474.49H929.765V480.634C929.765 482.075 930.351 482.796 931.522 482.796C932.765 482.796 933.591 482.333 934.001 481.407V474.49H935.627V484H934.08L934.045 483.06ZM940.312 472.188V474.49H942.087V475.747H940.312V481.645C940.312 482.025 940.391 482.312 940.549 482.506C940.707 482.693 940.977 482.787 941.357 482.787C941.545 482.787 941.803 482.752 942.131 482.682V484C941.703 484.117 941.287 484.176 940.883 484.176C940.156 484.176 939.608 483.956 939.239 483.517C938.87 483.077 938.686 482.453 938.686 481.645V475.747H936.954V474.49H938.686V472.188H940.312ZM945.761 484H944.135V474.49H945.761V484ZM944.003 471.968C944.003 471.704 944.082 471.481 944.24 471.3C944.404 471.118 944.645 471.027 944.961 471.027C945.277 471.027 945.518 471.118 945.682 471.3C945.846 471.481 945.928 471.704 945.928 471.968C945.928 472.231 945.846 472.451 945.682 472.627C945.518 472.803 945.277 472.891 944.961 472.891C944.645 472.891 944.404 472.803 944.24 472.627C944.082 472.451 944.003 472.231 944.003 471.968ZM949.909 474.49L949.962 475.686C950.688 474.771 951.638 474.314 952.81 474.314C954.819 474.314 955.833 475.448 955.851 477.716V484H954.225V477.707C954.219 477.021 954.061 476.515 953.75 476.187C953.445 475.858 952.968 475.694 952.317 475.694C951.79 475.694 951.327 475.835 950.929 476.116C950.53 476.397 950.22 476.767 949.997 477.224V484H948.371V474.49H949.909ZM957.916 479.166C957.916 477.684 958.259 476.506 958.944 475.633C959.63 474.754 960.538 474.314 961.669 474.314C962.829 474.314 963.734 474.725 964.385 475.545L964.464 474.49H965.949V483.771C965.949 485.002 965.583 485.972 964.851 486.681C964.124 487.39 963.146 487.744 961.915 487.744C961.229 487.744 960.559 487.598 959.902 487.305C959.246 487.012 958.745 486.61 958.399 486.101L959.243 485.125C959.94 485.986 960.793 486.417 961.801 486.417C962.592 486.417 963.207 486.194 963.646 485.749C964.092 485.304 964.314 484.677 964.314 483.868V483.051C963.664 483.801 962.776 484.176 961.651 484.176C960.538 484.176 959.636 483.728 958.944 482.831C958.259 481.935 957.916 480.713 957.916 479.166ZM959.551 479.351C959.551 480.423 959.771 481.267 960.21 481.882C960.649 482.491 961.265 482.796 962.056 482.796C963.081 482.796 963.834 482.33 964.314 481.398V477.057C963.816 476.148 963.069 475.694 962.073 475.694C961.282 475.694 960.664 476.002 960.219 476.617C959.773 477.232 959.551 478.144 959.551 479.351ZM980.908 479.351C980.908 480.798 980.577 481.964 979.915 482.849C979.253 483.733 978.356 484.176 977.226 484.176C976.071 484.176 975.163 483.81 974.501 483.077V487.656H972.875V474.49H974.36L974.439 475.545C975.102 474.725 976.021 474.314 977.199 474.314C978.342 474.314 979.244 474.745 979.906 475.606C980.574 476.468 980.908 477.666 980.908 479.201V479.351ZM979.282 479.166C979.282 478.094 979.054 477.247 978.597 476.626C978.14 476.005 977.513 475.694 976.716 475.694C975.731 475.694 974.993 476.131 974.501 477.004V481.548C974.987 482.415 975.731 482.849 976.733 482.849C977.513 482.849 978.131 482.541 978.588 481.926C979.051 481.305 979.282 480.385 979.282 479.166ZM987.579 475.949C987.333 475.908 987.066 475.888 986.779 475.888C985.713 475.888 984.989 476.342 984.608 477.25V484H982.982V474.49H984.564L984.591 475.589C985.124 474.739 985.88 474.314 986.858 474.314C987.175 474.314 987.415 474.355 987.579 474.438V475.949ZM988.476 479.157C988.476 478.226 988.657 477.388 989.021 476.644C989.39 475.899 989.899 475.325 990.55 474.921C991.206 474.517 991.953 474.314 992.791 474.314C994.086 474.314 995.132 474.763 995.929 475.659C996.731 476.556 997.133 477.748 997.133 479.236V479.351C997.133 480.276 996.954 481.108 996.597 481.847C996.245 482.579 995.738 483.15 995.076 483.561C994.42 483.971 993.664 484.176 992.809 484.176C991.52 484.176 990.474 483.728 989.671 482.831C988.874 481.935 988.476 480.748 988.476 479.271V479.157ZM990.11 479.351C990.11 480.405 990.354 481.252 990.84 481.891C991.332 482.529 991.988 482.849 992.809 482.849C993.635 482.849 994.291 482.526 994.777 481.882C995.264 481.231 995.507 480.323 995.507 479.157C995.507 478.114 995.258 477.271 994.76 476.626C994.268 475.976 993.611 475.65 992.791 475.65C991.988 475.65 991.341 475.97 990.849 476.608C990.356 477.247 990.11 478.161 990.11 479.351ZM1002.99 482.849C1003.57 482.849 1004.07 482.673 1004.51 482.321C1004.94 481.97 1005.18 481.53 1005.23 481.003H1006.77C1006.74 481.548 1006.55 482.066 1006.2 482.559C1005.86 483.051 1005.39 483.443 1004.81 483.736C1004.24 484.029 1003.63 484.176 1002.99 484.176C1001.69 484.176 1000.66 483.745 999.893 482.884C999.131 482.017 998.75 480.833 998.75 479.333V479.061C998.75 478.135 998.92 477.312 999.26 476.591C999.6 475.87 1000.09 475.311 1000.72 474.912C1001.36 474.514 1002.11 474.314 1002.98 474.314C1004.04 474.314 1004.93 474.634 1005.63 475.272C1006.34 475.911 1006.72 476.74 1006.77 477.76H1005.23C1005.18 477.145 1004.95 476.641 1004.52 476.248C1004.11 475.85 1003.59 475.65 1002.98 475.65C1002.15 475.65 1001.51 475.949 1001.05 476.547C1000.6 477.139 1000.38 477.997 1000.38 479.122V479.43C1000.38 480.525 1000.6 481.369 1001.05 481.961C1001.5 482.553 1002.15 482.849 1002.99 482.849ZM1012.54 484.176C1011.25 484.176 1010.2 483.754 1009.39 482.91C1008.58 482.061 1008.18 480.927 1008.18 479.509V479.21C1008.18 478.267 1008.36 477.426 1008.72 476.688C1009.08 475.943 1009.58 475.363 1010.23 474.947C1010.88 474.525 1011.58 474.314 1012.34 474.314C1013.57 474.314 1014.54 474.722 1015.22 475.536C1015.91 476.351 1016.25 477.517 1016.25 479.034V479.711H1009.81C1009.83 480.648 1010.1 481.407 1010.62 481.987C1011.15 482.562 1011.82 482.849 1012.63 482.849C1013.2 482.849 1013.69 482.731 1014.09 482.497C1014.49 482.263 1014.83 481.952 1015.13 481.565L1016.13 482.339C1015.33 483.563 1014.13 484.176 1012.54 484.176ZM1012.34 475.65C1011.68 475.65 1011.13 475.891 1010.69 476.371C1010.24 476.846 1009.96 477.514 1009.86 478.375H1014.62V478.252C1014.58 477.426 1014.35 476.787 1013.96 476.336C1013.56 475.879 1013.02 475.65 1012.34 475.65ZM1023.68 481.478C1023.68 481.038 1023.51 480.698 1023.17 480.458C1022.85 480.212 1022.27 480.001 1021.44 479.825C1020.62 479.649 1019.97 479.438 1019.48 479.192C1019 478.946 1018.65 478.653 1018.41 478.313C1018.18 477.974 1018.07 477.569 1018.07 477.101C1018.07 476.321 1018.4 475.662 1019.05 475.123C1019.71 474.584 1020.56 474.314 1021.58 474.314C1022.66 474.314 1023.54 474.593 1024.2 475.149C1024.88 475.706 1025.21 476.418 1025.21 477.285H1023.58C1023.58 476.84 1023.39 476.456 1023.01 476.134C1022.63 475.812 1022.16 475.65 1021.58 475.65C1020.99 475.65 1020.53 475.779 1020.2 476.037C1019.86 476.295 1019.69 476.632 1019.69 477.048C1019.69 477.44 1019.85 477.736 1020.16 477.936C1020.47 478.135 1021.03 478.325 1021.84 478.507C1022.65 478.688 1023.31 478.905 1023.82 479.157C1024.32 479.409 1024.69 479.714 1024.93 480.071C1025.18 480.423 1025.3 480.854 1025.3 481.363C1025.3 482.213 1024.96 482.896 1024.28 483.411C1023.6 483.921 1022.72 484.176 1021.64 484.176C1020.88 484.176 1020.2 484.041 1019.62 483.771C1019.03 483.502 1018.57 483.127 1018.24 482.646C1017.91 482.16 1017.74 481.636 1017.74 481.073H1019.37C1019.4 481.618 1019.62 482.052 1020.02 482.374C1020.43 482.69 1020.97 482.849 1021.64 482.849C1022.25 482.849 1022.74 482.726 1023.11 482.479C1023.49 482.228 1023.68 481.894 1023.68 481.478ZM1032.96 481.478C1032.96 481.038 1032.79 480.698 1032.46 480.458C1032.13 480.212 1031.55 480.001 1030.72 479.825C1029.9 479.649 1029.25 479.438 1028.76 479.192C1028.28 478.946 1027.93 478.653 1027.69 478.313C1027.46 477.974 1027.35 477.569 1027.35 477.101C1027.35 476.321 1027.68 475.662 1028.33 475.123C1029 474.584 1029.84 474.314 1030.87 474.314C1031.94 474.314 1032.82 474.593 1033.48 475.149C1034.16 475.706 1034.5 476.418 1034.5 477.285H1032.86C1032.86 476.84 1032.67 476.456 1032.29 476.134C1031.91 475.812 1031.44 475.65 1030.87 475.65C1030.27 475.65 1029.81 475.779 1029.48 476.037C1029.14 476.295 1028.98 476.632 1028.98 477.048C1028.98 477.44 1029.13 477.736 1029.44 477.936C1029.75 478.135 1030.31 478.325 1031.12 478.507C1031.93 478.688 1032.59 478.905 1033.1 479.157C1033.6 479.409 1033.97 479.714 1034.21 480.071C1034.46 480.423 1034.58 480.854 1034.58 481.363C1034.58 482.213 1034.24 482.896 1033.56 483.411C1032.88 483.921 1032 484.176 1030.92 484.176C1030.16 484.176 1029.48 484.041 1028.9 483.771C1028.31 483.502 1027.85 483.127 1027.52 482.646C1027.19 482.16 1027.02 481.636 1027.02 481.073H1028.65C1028.68 481.618 1028.9 482.052 1029.3 482.374C1029.71 482.69 1030.25 482.849 1030.92 482.849C1031.53 482.849 1032.03 482.726 1032.39 482.479C1032.77 482.228 1032.96 481.894 1032.96 481.478ZM1040.65 484.176C1039.36 484.176 1038.31 483.754 1037.5 482.91C1036.69 482.061 1036.29 480.927 1036.29 479.509V479.21C1036.29 478.267 1036.47 477.426 1036.82 476.688C1037.19 475.943 1037.69 475.363 1038.34 474.947C1038.99 474.525 1039.69 474.314 1040.45 474.314C1041.68 474.314 1042.64 474.722 1043.33 475.536C1044.01 476.351 1044.36 477.517 1044.36 479.034V479.711H1037.91C1037.94 480.648 1038.21 481.407 1038.73 481.987C1039.26 482.562 1039.93 482.849 1040.74 482.849C1041.31 482.849 1041.8 482.731 1042.19 482.497C1042.59 482.263 1042.94 481.952 1043.24 481.565L1044.23 482.339C1043.44 483.563 1042.24 484.176 1040.65 484.176ZM1040.45 475.65C1039.79 475.65 1039.24 475.891 1038.79 476.371C1038.35 476.846 1038.07 477.514 1037.97 478.375H1042.73V478.252C1042.68 477.426 1042.46 476.787 1042.06 476.336C1041.66 475.879 1041.12 475.65 1040.45 475.65ZM1051.78 481.478C1051.78 481.038 1051.62 480.698 1051.28 480.458C1050.95 480.212 1050.38 480.001 1049.55 479.825C1048.73 479.649 1048.08 479.438 1047.59 479.192C1047.11 478.946 1046.75 478.653 1046.52 478.313C1046.29 477.974 1046.18 477.569 1046.18 477.101C1046.18 476.321 1046.5 475.662 1047.16 475.123C1047.82 474.584 1048.67 474.314 1049.69 474.314C1050.77 474.314 1051.64 474.593 1052.31 475.149C1052.98 475.706 1053.32 476.418 1053.32 477.285H1051.69C1051.69 476.84 1051.5 476.456 1051.12 476.134C1050.74 475.812 1050.27 475.65 1049.69 475.65C1049.1 475.65 1048.64 475.779 1048.3 476.037C1047.97 476.295 1047.8 476.632 1047.8 477.048C1047.8 477.44 1047.96 477.736 1048.27 477.936C1048.58 478.135 1049.14 478.325 1049.95 478.507C1050.76 478.688 1051.42 478.905 1051.92 479.157C1052.43 479.409 1052.8 479.714 1053.04 480.071C1053.29 480.423 1053.41 480.854 1053.41 481.363C1053.41 482.213 1053.07 482.896 1052.39 483.411C1051.71 483.921 1050.83 484.176 1049.74 484.176C1048.98 484.176 1048.31 484.041 1047.72 483.771C1047.14 483.502 1046.68 483.127 1046.34 482.646C1046.01 482.16 1045.85 481.636 1045.85 481.073H1047.48C1047.51 481.618 1047.72 482.052 1048.13 482.374C1048.54 482.69 1049.08 482.849 1049.74 482.849C1050.36 482.849 1050.85 482.726 1051.22 482.479C1051.6 482.228 1051.78 481.894 1051.78 481.478ZM1055.56 483.147C1055.56 482.866 1055.64 482.632 1055.81 482.444C1055.98 482.257 1056.23 482.163 1056.56 482.163C1056.9 482.163 1057.15 482.257 1057.32 482.444C1057.5 482.632 1057.58 482.866 1057.58 483.147C1057.58 483.417 1057.5 483.643 1057.32 483.824C1057.15 484.006 1056.9 484.097 1056.56 484.097C1056.23 484.097 1055.98 484.006 1055.81 483.824C1055.64 483.643 1055.56 483.417 1055.56 483.147ZM1060.31 483.147C1060.31 482.866 1060.39 482.632 1060.55 482.444C1060.72 482.257 1060.98 482.163 1061.31 482.163C1061.64 482.163 1061.9 482.257 1062.07 482.444C1062.24 482.632 1062.33 482.866 1062.33 483.147C1062.33 483.417 1062.24 483.643 1062.07 483.824C1061.9 484.006 1061.64 484.097 1061.31 484.097C1060.98 484.097 1060.72 484.006 1060.55 483.824C1060.39 483.643 1060.31 483.417 1060.31 483.147ZM863.987 499.287L858.178 497.011V495.341L865.684 498.663V499.946L858.178 503.277V501.59L863.987 499.287ZM873.392 499.287L867.582 497.011V495.341L875.088 498.663V499.946L867.582 503.277V501.59L873.392 499.287ZM882.796 499.287L876.986 497.011V495.341L884.492 498.663V499.946L876.986 503.277V501.59L882.796 499.287ZM896.779 505C896.686 504.812 896.609 504.479 896.551 503.998C895.795 504.783 894.893 505.176 893.844 505.176C892.906 505.176 892.136 504.912 891.532 504.385C890.935 503.852 890.636 503.178 890.636 502.363C890.636 501.373 891.011 500.605 891.761 500.061C892.517 499.51 893.577 499.234 894.942 499.234H896.524V498.487C896.524 497.919 896.354 497.468 896.015 497.134C895.675 496.794 895.174 496.624 894.512 496.624C893.932 496.624 893.445 496.771 893.053 497.063C892.66 497.356 892.464 497.711 892.464 498.127H890.829C890.829 497.652 890.996 497.195 891.33 496.756C891.67 496.311 892.127 495.959 892.701 495.701C893.281 495.443 893.917 495.314 894.608 495.314C895.704 495.314 896.562 495.59 897.184 496.141C897.805 496.686 898.127 497.438 898.15 498.399V502.776C898.15 503.649 898.262 504.344 898.484 504.859V505H896.779ZM894.081 503.761C894.591 503.761 895.074 503.629 895.531 503.365C895.988 503.102 896.319 502.759 896.524 502.337V500.386H895.25C893.258 500.386 892.262 500.969 892.262 502.135C892.262 502.645 892.432 503.043 892.771 503.33C893.111 503.617 893.548 503.761 894.081 503.761ZM902.466 505H900.84V491.5H902.466V505ZM906.605 495.49L906.649 496.545C907.347 495.725 908.287 495.314 909.471 495.314C910.801 495.314 911.706 495.824 912.187 496.844C912.503 496.387 912.913 496.018 913.417 495.736C913.927 495.455 914.527 495.314 915.219 495.314C917.305 495.314 918.365 496.419 918.4 498.628V505H916.774V498.725C916.774 498.045 916.619 497.538 916.309 497.204C915.998 496.864 915.477 496.694 914.744 496.694C914.141 496.694 913.64 496.876 913.241 497.239C912.843 497.597 912.611 498.08 912.547 498.689V505H910.912V498.769C910.912 497.386 910.235 496.694 908.882 496.694C907.815 496.694 907.086 497.148 906.693 498.057V505H905.067V495.49H906.605ZM920.431 500.157C920.431 499.226 920.612 498.388 920.976 497.644C921.345 496.899 921.854 496.325 922.505 495.921C923.161 495.517 923.908 495.314 924.746 495.314C926.041 495.314 927.087 495.763 927.884 496.659C928.687 497.556 929.088 498.748 929.088 500.236V500.351C929.088 501.276 928.909 502.108 928.552 502.847C928.2 503.579 927.693 504.15 927.031 504.561C926.375 504.971 925.619 505.176 924.764 505.176C923.475 505.176 922.429 504.728 921.626 503.831C920.829 502.935 920.431 501.748 920.431 500.271V500.157ZM922.065 500.351C922.065 501.405 922.309 502.252 922.795 502.891C923.287 503.529 923.943 503.849 924.764 503.849C925.59 503.849 926.246 503.526 926.732 502.882C927.219 502.231 927.462 501.323 927.462 500.157C927.462 499.114 927.213 498.271 926.715 497.626C926.223 496.976 925.566 496.65 924.746 496.65C923.943 496.65 923.296 496.97 922.804 497.608C922.312 498.247 922.065 499.161 922.065 500.351ZM936.664 502.478C936.664 502.038 936.497 501.698 936.163 501.458C935.835 501.212 935.258 501.001 934.432 500.825C933.611 500.649 932.958 500.438 932.472 500.192C931.991 499.946 931.634 499.653 931.399 499.313C931.171 498.974 931.057 498.569 931.057 498.101C931.057 497.321 931.385 496.662 932.041 496.123C932.703 495.584 933.547 495.314 934.572 495.314C935.65 495.314 936.523 495.593 937.191 496.149C937.865 496.706 938.202 497.418 938.202 498.285H936.567C936.567 497.84 936.377 497.456 935.996 497.134C935.621 496.812 935.146 496.65 934.572 496.65C933.98 496.65 933.518 496.779 933.184 497.037C932.85 497.295 932.683 497.632 932.683 498.048C932.683 498.44 932.838 498.736 933.148 498.936C933.459 499.135 934.019 499.325 934.827 499.507C935.642 499.688 936.301 499.905 936.805 500.157C937.309 500.409 937.681 500.714 937.921 501.071C938.167 501.423 938.29 501.854 938.29 502.363C938.29 503.213 937.95 503.896 937.271 504.411C936.591 504.921 935.709 505.176 934.625 505.176C933.863 505.176 933.189 505.041 932.604 504.771C932.018 504.502 931.558 504.127 931.224 503.646C930.896 503.16 930.731 502.636 930.731 502.073H932.357C932.387 502.618 932.604 503.052 933.008 503.374C933.418 503.69 933.957 503.849 934.625 503.849C935.24 503.849 935.732 503.726 936.102 503.479C936.477 503.228 936.664 502.894 936.664 502.478ZM942.614 493.188V495.49H944.39V496.747H942.614V502.645C942.614 503.025 942.693 503.312 942.852 503.506C943.01 503.693 943.279 503.787 943.66 503.787C943.848 503.787 944.105 503.752 944.434 503.682V505C944.006 505.117 943.59 505.176 943.186 505.176C942.459 505.176 941.911 504.956 941.542 504.517C941.173 504.077 940.988 503.453 940.988 502.645V496.747H939.257V495.49H940.988V493.188H942.614ZM950.366 500.166C950.366 498.707 950.712 497.535 951.403 496.65C952.095 495.76 953 495.314 954.119 495.314C955.232 495.314 956.114 495.695 956.765 496.457V491.5H958.391V505H956.896L956.817 503.98C956.167 504.777 955.262 505.176 954.102 505.176C953 505.176 952.101 504.725 951.403 503.822C950.712 502.92 950.366 501.742 950.366 500.289V500.166ZM951.992 500.351C951.992 501.429 952.215 502.272 952.66 502.882C953.105 503.491 953.721 503.796 954.506 503.796C955.537 503.796 956.29 503.333 956.765 502.407V498.039C956.278 497.143 955.531 496.694 954.523 496.694C953.727 496.694 953.105 497.002 952.66 497.617C952.215 498.232 951.992 499.144 951.992 500.351ZM960.491 500.157C960.491 499.226 960.673 498.388 961.036 497.644C961.405 496.899 961.915 496.325 962.565 495.921C963.222 495.517 963.969 495.314 964.807 495.314C966.102 495.314 967.147 495.763 967.944 496.659C968.747 497.556 969.148 498.748 969.148 500.236V500.351C969.148 501.276 968.97 502.108 968.612 502.847C968.261 503.579 967.754 504.15 967.092 504.561C966.436 504.971 965.68 505.176 964.824 505.176C963.535 505.176 962.489 504.728 961.687 503.831C960.89 502.935 960.491 501.748 960.491 500.271V500.157ZM962.126 500.351C962.126 501.405 962.369 502.252 962.855 502.891C963.348 503.529 964.004 503.849 964.824 503.849C965.65 503.849 966.307 503.526 966.793 502.882C967.279 502.231 967.522 501.323 967.522 500.157C967.522 499.114 967.273 498.271 966.775 497.626C966.283 496.976 965.627 496.65 964.807 496.65C964.004 496.65 963.356 496.97 962.864 497.608C962.372 498.247 962.126 499.161 962.126 500.351ZM972.726 495.49L972.778 496.686C973.505 495.771 974.454 495.314 975.626 495.314C977.636 495.314 978.649 496.448 978.667 498.716V505H977.041V498.707C977.035 498.021 976.877 497.515 976.566 497.187C976.262 496.858 975.784 496.694 975.134 496.694C974.606 496.694 974.144 496.835 973.745 497.116C973.347 497.397 973.036 497.767 972.813 498.224V505H971.188V495.49H972.726ZM985.065 505.176C983.776 505.176 982.728 504.754 981.919 503.91C981.11 503.061 980.706 501.927 980.706 500.509V500.21C980.706 499.267 980.885 498.426 981.242 497.688C981.605 496.943 982.109 496.363 982.754 495.947C983.404 495.525 984.107 495.314 984.863 495.314C986.1 495.314 987.061 495.722 987.746 496.536C988.432 497.351 988.774 498.517 988.774 500.034V500.711H982.332C982.355 501.648 982.628 502.407 983.149 502.987C983.677 503.562 984.345 503.849 985.153 503.849C985.728 503.849 986.214 503.731 986.612 503.497C987.011 503.263 987.359 502.952 987.658 502.565L988.651 503.339C987.854 504.563 986.659 505.176 985.065 505.176ZM984.863 496.65C984.207 496.65 983.656 496.891 983.211 497.371C982.766 497.846 982.49 498.514 982.385 499.375H987.148V499.252C987.102 498.426 986.879 497.787 986.48 497.336C986.082 496.879 985.543 496.65 984.863 496.65ZM863.987 520.287L858.178 518.011V516.341L865.684 519.663V520.946L858.178 524.277V522.59L863.987 520.287ZM873.392 520.287L867.582 518.011V516.341L875.088 519.663V520.946L867.582 524.277V522.59L873.392 520.287ZM882.796 520.287L876.986 518.011V516.341L884.492 519.663V520.946L876.986 524.277V522.59L882.796 520.287ZM892.675 526H891.049V516.49H892.675V526ZM890.917 513.968C890.917 513.704 890.996 513.481 891.154 513.3C891.318 513.118 891.559 513.027 891.875 513.027C892.191 513.027 892.432 513.118 892.596 513.3C892.76 513.481 892.842 513.704 892.842 513.968C892.842 514.231 892.76 514.451 892.596 514.627C892.432 514.803 892.191 514.891 891.875 514.891C891.559 514.891 891.318 514.803 891.154 514.627C890.996 514.451 890.917 514.231 890.917 513.968ZM896.823 516.49L896.876 517.686C897.603 516.771 898.552 516.314 899.724 516.314C901.733 516.314 902.747 517.448 902.765 519.716V526H901.139V519.707C901.133 519.021 900.975 518.515 900.664 518.187C900.359 517.858 899.882 517.694 899.231 517.694C898.704 517.694 898.241 517.835 897.843 518.116C897.444 518.397 897.134 518.767 896.911 519.224V526H895.285V516.49H896.823ZM910.754 523.478C910.754 523.038 910.587 522.698 910.253 522.458C909.925 522.212 909.348 522.001 908.521 521.825C907.701 521.649 907.048 521.438 906.562 521.192C906.081 520.946 905.724 520.653 905.489 520.313C905.261 519.974 905.146 519.569 905.146 519.101C905.146 518.321 905.475 517.662 906.131 517.123C906.793 516.584 907.637 516.314 908.662 516.314C909.74 516.314 910.613 516.593 911.281 517.149C911.955 517.706 912.292 518.418 912.292 519.285H910.657C910.657 518.84 910.467 518.456 910.086 518.134C909.711 517.812 909.236 517.65 908.662 517.65C908.07 517.65 907.607 517.779 907.273 518.037C906.939 518.295 906.772 518.632 906.772 519.048C906.772 519.44 906.928 519.736 907.238 519.936C907.549 520.135 908.108 520.325 908.917 520.507C909.731 520.688 910.391 520.905 910.895 521.157C911.398 521.409 911.771 521.714 912.011 522.071C912.257 522.423 912.38 522.854 912.38 523.363C912.38 524.213 912.04 524.896 911.36 525.411C910.681 525.921 909.799 526.176 908.715 526.176C907.953 526.176 907.279 526.041 906.693 525.771C906.107 525.502 905.647 525.127 905.313 524.646C904.985 524.16 904.821 523.636 904.821 523.073H906.447C906.477 523.618 906.693 524.052 907.098 524.374C907.508 524.69 908.047 524.849 908.715 524.849C909.33 524.849 909.822 524.726 910.191 524.479C910.566 524.228 910.754 523.894 910.754 523.478ZM916.704 514.188V516.49H918.479V517.747H916.704V523.645C916.704 524.025 916.783 524.312 916.941 524.506C917.1 524.693 917.369 524.787 917.75 524.787C917.938 524.787 918.195 524.752 918.523 524.682V526C918.096 526.117 917.68 526.176 917.275 526.176C916.549 526.176 916.001 525.956 915.632 525.517C915.263 525.077 915.078 524.453 915.078 523.645V517.747H913.347V516.49H915.078V514.188H916.704ZM926.258 526C926.164 525.812 926.088 525.479 926.029 524.998C925.273 525.783 924.371 526.176 923.322 526.176C922.385 526.176 921.614 525.912 921.011 525.385C920.413 524.852 920.114 524.178 920.114 523.363C920.114 522.373 920.489 521.605 921.239 521.061C921.995 520.51 923.056 520.234 924.421 520.234H926.003V519.487C926.003 518.919 925.833 518.468 925.493 518.134C925.153 517.794 924.652 517.624 923.99 517.624C923.41 517.624 922.924 517.771 922.531 518.063C922.139 518.356 921.942 518.711 921.942 519.127H920.308C920.308 518.652 920.475 518.195 920.809 517.756C921.148 517.311 921.605 516.959 922.18 516.701C922.76 516.443 923.396 516.314 924.087 516.314C925.183 516.314 926.041 516.59 926.662 517.141C927.283 517.686 927.605 518.438 927.629 519.399V523.776C927.629 524.649 927.74 525.344 927.963 525.859V526H926.258ZM923.56 524.761C924.069 524.761 924.553 524.629 925.01 524.365C925.467 524.102 925.798 523.759 926.003 523.337V521.386H924.729C922.736 521.386 921.74 521.969 921.74 523.135C921.74 523.645 921.91 524.043 922.25 524.33C922.59 524.617 923.026 524.761 923.56 524.761ZM931.944 526H930.318V512.5H931.944V526ZM936.321 526H934.695V512.5H936.321V526ZM940.698 526H939.072V516.49H940.698V526ZM938.94 513.968C938.94 513.704 939.02 513.481 939.178 513.3C939.342 513.118 939.582 513.027 939.898 513.027C940.215 513.027 940.455 513.118 940.619 513.3C940.783 513.481 940.865 513.704 940.865 513.968C940.865 514.231 940.783 514.451 940.619 514.627C940.455 514.803 940.215 514.891 939.898 514.891C939.582 514.891 939.342 514.803 939.178 514.627C939.02 514.451 938.94 514.231 938.94 513.968ZM944.847 516.49L944.899 517.686C945.626 516.771 946.575 516.314 947.747 516.314C949.757 516.314 950.771 517.448 950.788 519.716V526H949.162V519.707C949.156 519.021 948.998 518.515 948.688 518.187C948.383 517.858 947.905 517.694 947.255 517.694C946.728 517.694 946.265 517.835 945.866 518.116C945.468 518.397 945.157 518.767 944.935 519.224V526H943.309V516.49H944.847ZM952.854 521.166C952.854 519.684 953.196 518.506 953.882 517.633C954.567 516.754 955.476 516.314 956.606 516.314C957.767 516.314 958.672 516.725 959.322 517.545L959.401 516.49H960.887V525.771C960.887 527.002 960.521 527.972 959.788 528.681C959.062 529.39 958.083 529.744 956.853 529.744C956.167 529.744 955.496 529.598 954.84 529.305C954.184 529.012 953.683 528.61 953.337 528.101L954.181 527.125C954.878 527.986 955.73 528.417 956.738 528.417C957.529 528.417 958.145 528.194 958.584 527.749C959.029 527.304 959.252 526.677 959.252 525.868V525.051C958.602 525.801 957.714 526.176 956.589 526.176C955.476 526.176 954.573 525.728 953.882 524.831C953.196 523.935 952.854 522.713 952.854 521.166ZM954.488 521.351C954.488 522.423 954.708 523.267 955.147 523.882C955.587 524.491 956.202 524.796 956.993 524.796C958.019 524.796 958.771 524.33 959.252 523.398V519.057C958.754 518.148 958.007 517.694 957.011 517.694C956.22 517.694 955.602 518.002 955.156 518.617C954.711 519.232 954.488 520.144 954.488 521.351ZM967.417 521.166C967.417 519.707 967.763 518.535 968.454 517.65C969.146 516.76 970.051 516.314 971.17 516.314C972.283 516.314 973.165 516.695 973.815 517.457V512.5H975.441V526H973.947L973.868 524.98C973.218 525.777 972.312 526.176 971.152 526.176C970.051 526.176 969.151 525.725 968.454 524.822C967.763 523.92 967.417 522.742 967.417 521.289V521.166ZM969.043 521.351C969.043 522.429 969.266 523.272 969.711 523.882C970.156 524.491 970.771 524.796 971.557 524.796C972.588 524.796 973.341 524.333 973.815 523.407V519.039C973.329 518.143 972.582 517.694 971.574 517.694C970.777 517.694 970.156 518.002 969.711 518.617C969.266 519.232 969.043 520.144 969.043 521.351ZM981.919 526.176C980.63 526.176 979.581 525.754 978.772 524.91C977.964 524.061 977.56 522.927 977.56 521.509V521.21C977.56 520.267 977.738 519.426 978.096 518.688C978.459 517.943 978.963 517.363 979.607 516.947C980.258 516.525 980.961 516.314 981.717 516.314C982.953 516.314 983.914 516.722 984.6 517.536C985.285 518.351 985.628 519.517 985.628 521.034V521.711H979.186C979.209 522.648 979.481 523.407 980.003 523.987C980.53 524.562 981.198 524.849 982.007 524.849C982.581 524.849 983.067 524.731 983.466 524.497C983.864 524.263 984.213 523.952 984.512 523.565L985.505 524.339C984.708 525.563 983.513 526.176 981.919 526.176ZM981.717 517.65C981.061 517.65 980.51 517.891 980.064 518.371C979.619 518.846 979.344 519.514 979.238 520.375H984.002V520.252C983.955 519.426 983.732 518.787 983.334 518.336C982.936 517.879 982.396 517.65 981.717 517.65ZM995.551 521.351C995.551 522.798 995.22 523.964 994.558 524.849C993.896 525.733 992.999 526.176 991.868 526.176C990.714 526.176 989.806 525.81 989.144 525.077V529.656H987.518V516.49H989.003L989.082 517.545C989.744 516.725 990.664 516.314 991.842 516.314C992.984 516.314 993.887 516.745 994.549 517.606C995.217 518.468 995.551 519.666 995.551 521.201V521.351ZM993.925 521.166C993.925 520.094 993.696 519.247 993.239 518.626C992.782 518.005 992.155 517.694 991.358 517.694C990.374 517.694 989.636 518.131 989.144 519.004V523.548C989.63 524.415 990.374 524.849 991.376 524.849C992.155 524.849 992.773 524.541 993.23 523.926C993.693 523.305 993.925 522.385 993.925 521.166ZM1001.57 526.176C1000.28 526.176 999.233 525.754 998.425 524.91C997.616 524.061 997.212 522.927 997.212 521.509V521.21C997.212 520.267 997.391 519.426 997.748 518.688C998.111 517.943 998.615 517.363 999.26 516.947C999.91 516.525 1000.61 516.314 1001.37 516.314C1002.61 516.314 1003.57 516.722 1004.25 517.536C1004.94 518.351 1005.28 519.517 1005.28 521.034V521.711H998.838C998.861 522.648 999.134 523.407 999.655 523.987C1000.18 524.562 1000.85 524.849 1001.66 524.849C1002.23 524.849 1002.72 524.731 1003.12 524.497C1003.52 524.263 1003.87 523.952 1004.16 523.565L1005.16 524.339C1004.36 525.563 1003.17 526.176 1001.57 526.176ZM1001.37 517.65C1000.71 517.65 1000.16 517.891 999.717 518.371C999.271 518.846 998.996 519.514 998.891 520.375H1003.65V520.252C1003.61 519.426 1003.38 518.787 1002.99 518.336C1002.59 517.879 1002.05 517.65 1001.37 517.65ZM1008.71 516.49L1008.76 517.686C1009.49 516.771 1010.44 516.314 1011.61 516.314C1013.62 516.314 1014.63 517.448 1014.65 519.716V526H1013.02V519.707C1013.02 519.021 1012.86 518.515 1012.55 518.187C1012.24 517.858 1011.77 517.694 1011.12 517.694C1010.59 517.694 1010.13 517.835 1009.73 518.116C1009.33 518.397 1009.02 518.767 1008.8 519.224V526H1007.17V516.49H1008.71ZM1016.71 521.166C1016.71 519.707 1017.05 518.535 1017.74 517.65C1018.43 516.76 1019.34 516.314 1020.46 516.314C1021.57 516.314 1022.45 516.695 1023.1 517.457V512.5H1024.73V526H1023.24L1023.16 524.98C1022.51 525.777 1021.6 526.176 1020.44 526.176C1019.34 526.176 1018.44 525.725 1017.74 524.822C1017.05 523.92 1016.71 522.742 1016.71 521.289V521.166ZM1018.33 521.351C1018.33 522.429 1018.55 523.272 1019 523.882C1019.45 524.491 1020.06 524.796 1020.85 524.796C1021.88 524.796 1022.63 524.333 1023.1 523.407V519.039C1022.62 518.143 1021.87 517.694 1020.86 517.694C1020.07 517.694 1019.45 518.002 1019 518.617C1018.55 519.232 1018.33 520.144 1018.33 521.351ZM1031.21 526.176C1029.92 526.176 1028.87 525.754 1028.06 524.91C1027.25 524.061 1026.85 522.927 1026.85 521.509V521.21C1026.85 520.267 1027.03 519.426 1027.38 518.688C1027.75 517.943 1028.25 517.363 1028.9 516.947C1029.55 516.525 1030.25 516.314 1031.01 516.314C1032.24 516.314 1033.2 516.722 1033.89 517.536C1034.57 518.351 1034.92 519.517 1034.92 521.034V521.711H1028.47C1028.5 522.648 1028.77 523.407 1029.29 523.987C1029.82 524.562 1030.49 524.849 1031.3 524.849C1031.87 524.849 1032.36 524.731 1032.75 524.497C1033.15 524.263 1033.5 523.952 1033.8 523.565L1034.79 524.339C1034 525.563 1032.8 526.176 1031.21 526.176ZM1031.01 517.65C1030.35 517.65 1029.8 517.891 1029.35 518.371C1028.91 518.846 1028.63 519.514 1028.53 520.375H1033.29V520.252C1033.24 519.426 1033.02 518.787 1032.62 518.336C1032.22 517.879 1031.69 517.65 1031.01 517.65ZM1038.34 516.49L1038.4 517.686C1039.12 516.771 1040.07 516.314 1041.25 516.314C1043.25 516.314 1044.27 517.448 1044.29 519.716V526H1042.66V519.707C1042.65 519.021 1042.5 518.515 1042.19 518.187C1041.88 517.858 1041.4 517.694 1040.75 517.694C1040.23 517.694 1039.76 517.835 1039.36 518.116C1038.97 518.397 1038.66 518.767 1038.43 519.224V526H1036.81V516.49H1038.34ZM1050.55 524.849C1051.13 524.849 1051.64 524.673 1052.07 524.321C1052.51 523.97 1052.75 523.53 1052.79 523.003H1054.33C1054.3 523.548 1054.12 524.066 1053.77 524.559C1053.42 525.051 1052.96 525.443 1052.38 525.736C1051.81 526.029 1051.2 526.176 1050.55 526.176C1049.26 526.176 1048.23 525.745 1047.46 524.884C1046.7 524.017 1046.32 522.833 1046.32 521.333V521.061C1046.32 520.135 1046.49 519.312 1046.83 518.591C1047.17 517.87 1047.65 517.311 1048.29 516.912C1048.92 516.514 1049.68 516.314 1050.54 516.314C1051.61 516.314 1052.5 516.634 1053.2 517.272C1053.91 517.911 1054.29 518.74 1054.33 519.76H1052.79C1052.75 519.145 1052.51 518.641 1052.09 518.248C1051.67 517.85 1051.16 517.65 1050.54 517.65C1049.72 517.65 1049.08 517.949 1048.62 518.547C1048.17 519.139 1047.94 519.997 1047.94 521.122V521.43C1047.94 522.525 1048.17 523.369 1048.62 523.961C1049.07 524.553 1049.71 524.849 1050.55 524.849ZM1057.93 526H1056.3V516.49H1057.93V526ZM1056.17 513.968C1056.17 513.704 1056.25 513.481 1056.41 513.3C1056.57 513.118 1056.81 513.027 1057.13 513.027C1057.44 513.027 1057.68 513.118 1057.85 513.3C1058.01 513.481 1058.09 513.704 1058.09 513.968C1058.09 514.231 1058.01 514.451 1057.85 514.627C1057.68 514.803 1057.44 514.891 1057.13 514.891C1056.81 514.891 1056.57 514.803 1056.41 514.627C1056.25 514.451 1056.17 514.231 1056.17 513.968ZM1064.48 526.176C1063.19 526.176 1062.15 525.754 1061.34 524.91C1060.53 524.061 1060.12 522.927 1060.12 521.509V521.21C1060.12 520.267 1060.3 519.426 1060.66 518.688C1061.02 517.943 1061.53 517.363 1062.17 516.947C1062.82 516.525 1063.53 516.314 1064.28 516.314C1065.52 516.314 1066.48 516.722 1067.16 517.536C1067.85 518.351 1068.19 519.517 1068.19 521.034V521.711H1061.75C1061.77 522.648 1062.05 523.407 1062.57 523.987C1063.09 524.562 1063.76 524.849 1064.57 524.849C1065.15 524.849 1065.63 524.731 1066.03 524.497C1066.43 524.263 1066.78 523.952 1067.08 523.565L1068.07 524.339C1067.27 525.563 1066.08 526.176 1064.48 526.176ZM1064.28 517.65C1063.62 517.65 1063.07 517.891 1062.63 518.371C1062.18 518.846 1061.91 519.514 1061.8 520.375H1066.57V520.252C1066.52 519.426 1066.3 518.787 1065.9 518.336C1065.5 517.879 1064.96 517.65 1064.28 517.65ZM1075.62 523.478C1075.62 523.038 1075.45 522.698 1075.12 522.458C1074.79 522.212 1074.21 522.001 1073.39 521.825C1072.57 521.649 1071.91 521.438 1071.43 521.192C1070.95 520.946 1070.59 520.653 1070.35 520.313C1070.13 519.974 1070.01 519.569 1070.01 519.101C1070.01 518.321 1070.34 517.662 1071 517.123C1071.66 516.584 1072.5 516.314 1073.53 516.314C1074.61 516.314 1075.48 516.593 1076.15 517.149C1076.82 517.706 1077.16 518.418 1077.16 519.285H1075.52C1075.52 518.84 1075.33 518.456 1074.95 518.134C1074.58 517.812 1074.1 517.65 1073.53 517.65C1072.94 517.65 1072.47 517.779 1072.14 518.037C1071.8 518.295 1071.64 518.632 1071.64 519.048C1071.64 519.44 1071.79 519.736 1072.1 519.936C1072.41 520.135 1072.97 520.325 1073.78 520.507C1074.6 520.688 1075.26 520.905 1075.76 521.157C1076.26 521.409 1076.64 521.714 1076.88 522.071C1077.12 522.423 1077.25 522.854 1077.25 523.363C1077.25 524.213 1076.91 524.896 1076.23 525.411C1075.55 525.921 1074.66 526.176 1073.58 526.176C1072.82 526.176 1072.14 526.041 1071.56 525.771C1070.97 525.502 1070.51 525.127 1070.18 524.646C1069.85 524.16 1069.69 523.636 1069.69 523.073H1071.31C1071.34 523.618 1071.56 524.052 1071.96 524.374C1072.37 524.69 1072.91 524.849 1073.58 524.849C1074.2 524.849 1074.69 524.726 1075.06 524.479C1075.43 524.228 1075.62 523.894 1075.62 523.478ZM1079.4 525.147C1079.4 524.866 1079.48 524.632 1079.64 524.444C1079.81 524.257 1080.07 524.163 1080.4 524.163C1080.73 524.163 1080.99 524.257 1081.16 524.444C1081.33 524.632 1081.42 524.866 1081.42 525.147C1081.42 525.417 1081.33 525.643 1081.16 525.824C1080.99 526.006 1080.73 526.097 1080.4 526.097C1080.07 526.097 1079.81 526.006 1079.64 525.824C1079.48 525.643 1079.4 525.417 1079.4 525.147ZM1084.14 525.147C1084.14 524.866 1084.23 524.632 1084.39 524.444C1084.56 524.257 1084.81 524.163 1085.15 524.163C1085.48 524.163 1085.73 524.257 1085.9 524.444C1086.08 524.632 1086.17 524.866 1086.17 525.147C1086.17 525.417 1086.08 525.643 1085.9 525.824C1085.73 526.006 1085.48 526.097 1085.15 526.097C1084.81 526.097 1084.56 526.006 1084.39 525.824C1084.23 525.643 1084.14 525.417 1084.14 525.147ZM863.987 541.287L858.178 539.011V537.341L865.684 540.663V541.946L858.178 545.277V543.59L863.987 541.287ZM873.392 541.287L867.582 539.011V537.341L875.088 540.663V541.946L867.582 545.277V543.59L873.392 541.287ZM882.796 541.287L876.986 539.011V537.341L884.492 540.663V541.946L876.986 545.277V543.59L882.796 541.287ZM890.513 542.166C890.513 540.707 890.858 539.535 891.55 538.65C892.241 537.76 893.146 537.314 894.266 537.314C895.379 537.314 896.261 537.695 896.911 538.457V533.5H898.537V547H897.043L896.964 545.98C896.313 546.777 895.408 547.176 894.248 547.176C893.146 547.176 892.247 546.725 891.55 545.822C890.858 544.92 890.513 543.742 890.513 542.289V542.166ZM892.139 542.351C892.139 543.429 892.361 544.272 892.807 544.882C893.252 545.491 893.867 545.796 894.652 545.796C895.684 545.796 896.437 545.333 896.911 544.407V540.039C896.425 539.143 895.678 538.694 894.67 538.694C893.873 538.694 893.252 539.002 892.807 539.617C892.361 540.232 892.139 541.144 892.139 542.351ZM900.638 542.157C900.638 541.226 900.819 540.388 901.183 539.644C901.552 538.899 902.062 538.325 902.712 537.921C903.368 537.517 904.115 537.314 904.953 537.314C906.248 537.314 907.294 537.763 908.091 538.659C908.894 539.556 909.295 540.748 909.295 542.236V542.351C909.295 543.276 909.116 544.108 908.759 544.847C908.407 545.579 907.9 546.15 907.238 546.561C906.582 546.971 905.826 547.176 904.971 547.176C903.682 547.176 902.636 546.728 901.833 545.831C901.036 544.935 900.638 543.748 900.638 542.271V542.157ZM902.272 542.351C902.272 543.405 902.516 544.252 903.002 544.891C903.494 545.529 904.15 545.849 904.971 545.849C905.797 545.849 906.453 545.526 906.939 544.882C907.426 544.231 907.669 543.323 907.669 542.157C907.669 541.114 907.42 540.271 906.922 539.626C906.43 538.976 905.773 538.65 904.953 538.65C904.15 538.65 903.503 538.97 903.011 539.608C902.519 540.247 902.272 541.161 902.272 542.351ZM912.872 537.49L912.925 538.686C913.651 537.771 914.601 537.314 915.772 537.314C917.782 537.314 918.796 538.448 918.813 540.716V547H917.188V540.707C917.182 540.021 917.023 539.515 916.713 539.187C916.408 538.858 915.931 538.694 915.28 538.694C914.753 538.694 914.29 538.835 913.892 539.116C913.493 539.397 913.183 539.767 912.96 540.224V547H911.334V537.49H912.872ZM925.212 547.176C923.923 547.176 922.874 546.754 922.065 545.91C921.257 545.061 920.853 543.927 920.853 542.509V542.21C920.853 541.267 921.031 540.426 921.389 539.688C921.752 538.943 922.256 538.363 922.9 537.947C923.551 537.525 924.254 537.314 925.01 537.314C926.246 537.314 927.207 537.722 927.893 538.536C928.578 539.351 928.921 540.517 928.921 542.034V542.711H922.479C922.502 543.648 922.774 544.407 923.296 544.987C923.823 545.562 924.491 545.849 925.3 545.849C925.874 545.849 926.36 545.731 926.759 545.497C927.157 545.263 927.506 544.952 927.805 544.565L928.798 545.339C928.001 546.563 926.806 547.176 925.212 547.176ZM925.01 538.65C924.354 538.65 923.803 538.891 923.357 539.371C922.912 539.846 922.637 540.514 922.531 541.375H927.295V541.252C927.248 540.426 927.025 539.787 926.627 539.336C926.229 538.879 925.689 538.65 925.01 538.65Z" fill="#E2E2E2"/>
</g>
<defs>
<clipPath id="clip0">
<rect width="1440" height="1024" fill="white"/>
</clipPath>
</defs>
</svg>
