<?xml version="1.0" encoding="UTF-8" standalone="no"?>
<!-- Created with Inkscape (http://www.inkscape.org/) -->

<svg
   xmlns:dc="http://purl.org/dc/elements/1.1/"
   xmlns:cc="http://creativecommons.org/ns#"
   xmlns:rdf="http://www.w3.org/1999/02/22-rdf-syntax-ns#"
   xmlns:svg="http://www.w3.org/2000/svg"
   xmlns="http://www.w3.org/2000/svg"
   xmlns:sodipodi="http://sodipodi.sourceforge.net/DTD/sodipodi-0.dtd"
   xmlns:inkscape="http://www.inkscape.org/namespaces/inkscape"
   width="225px"
   height="225px"
   viewBox="0 0 225 225"
   version="1.1"
   id="SVGRoot"
   inkscape:version="0.92.4 (5da689c313, 2019-01-14)"
   sodipodi:docname="drawing-1.svg">
  <defs
     id="defs115" />
  <sodipodi:namedview
     id="base"
     pagecolor="#ffffff"
     bordercolor="#666666"
     borderopacity="1.0"
     inkscape:pageopacity="0.0"
     inkscape:pageshadow="2"
     inkscape:zoom="1.1377778"
     inkscape:cx="112.5"
     inkscape:cy="112.5"
     inkscape:document-units="px"
     inkscape:current-layer="layer1"
     showgrid="false"
     inkscape:window-width="1920"
     inkscape:window-height="1001"
     inkscape:window-x="-9"
     inkscape:window-y="-9"
     inkscape:window-maximized="1"
     inkscape:grid-bbox="true" />
  <metadata
     id="metadata118">
    <rdf:RDF>
      <cc:Work
         rdf:about="">
        <dc:format>image/svg+xml</dc:format>
        <dc:type
           rdf:resource="http://purl.org/dc/dcmitype/StillImage" />
        <dc:title></dc:title>
      </cc:Work>
    </rdf:RDF>
  </metadata>
  <g
     inkscape:label="Layer 1"
     inkscape:groupmode="layer"
     id="layer1">
    <path
       inkscape:connector-curvature="0"
       style="fill:#5382a1;stroke-width:0.59722108"
       d="m 79.971952,167.71004 c 0,0 -9.215959,4.52413 6.558685,6.05503 19.110523,1.84039 28.877713,1.57646 49.937653,-1.78825 0,0 5.53686,2.93068 13.26948,5.46902 -47.21084,17.08031 -106.847413,-0.98933 -69.765818,-9.7358"
       id="path4" />
    <path
       inkscape:connector-curvature="0"
       style="fill:#5382a1;stroke-width:0.59722108"
       d="m 74.203039,145.42134 c 0,0 -10.336591,6.45889 5.449753,7.83726 20.414478,1.77783 36.536228,1.92324 64.433058,-2.61132 0,0 3.85851,3.30215 9.92578,5.10796 -57.080701,14.08983 -120.658341,1.11114 -79.808591,-10.3339"
       id="path6" />
    <path
       inkscape:connector-curvature="0"
       style="fill:#f8981d;stroke-width:0.59722108"
       d="m 122.83675,107.61233 c 11.63273,11.30566 -3.05639,21.47934 -3.05639,21.47934 0,0 29.53749,-12.8717 15.97226,-28.99012 -12.66952,-15.031422 -22.38534,-22.49994 30.2122,-48.25046 0,0 -82.560771,17.406251 -43.12807,55.76124"
       id="path8" />
    <path
       inkscape:connector-curvature="0"
       style="fill:#5382a1;stroke-width:0.59722108"
       d="m 185.27686,184.1961 c 0,0 6.81999,4.74362 -7.51096,8.4134 -27.25071,6.96865 -113.420389,9.07296 -137.357962,0.27765 -8.604942,-3.16003 7.531761,-7.54535 12.607755,-8.46553 5.293748,-0.96903 8.318933,-0.7885 8.318933,-0.7885 -9.569568,-5.6907 -61.8537919,11.17397 -26.557797,16.00374 96.257311,13.17732 175.467881,-5.93378 150.500031,-15.44076"
       id="path10" />
    <path
       inkscape:connector-curvature="0"
       style="fill:#5382a1;stroke-width:0.59722108"
       d="m 84.403777,122.32768 c 0,0 -43.831385,8.78818 -15.521787,11.97949 11.953187,1.35094 35.78155,1.0453 57.97708,-0.52457 18.13941,-1.29167 36.35356,-4.03797 36.35356,-4.03797 0,0 -6.39616,2.31228 -11.02364,4.97956 -44.51001,9.88176 -130.49508,5.28466 -105.741082,-4.82317 20.934489,-8.54236 37.955869,-7.57334 37.955869,-7.57334"
       id="path12" />
    <path
       inkscape:connector-curvature="0"
       style="fill:#5382a1;stroke-width:0.59722108"
       d="m 163.03194,159.42832 c 45.24648,-19.84747 24.32628,-38.92071 9.72427,-36.35109 -3.579,0.62882 -5.17479,1.1737 -5.17479,1.1737 0,0 1.32863,-1.75699 3.8663,-2.51749 28.88747,-8.57309 51.1038,25.2852 -9.32516,38.69518 0,5.5e-4 0.70007,-0.52785 0.90938,-1.0003"
       id="path14" />
    <path
       inkscape:connector-curvature="0"
       style="fill:#f8981d;stroke-width:0.59722108"
       d="m 135.75262,10.270772 c 0,0 25.0582,21.159991 -23.76663,53.69808 C 72.83345,90.069994 103.058,104.95218 111.96972,121.95566 89.115759,104.54941 72.343987,89.226626 83.595804,74.965597 100.11082,54.031673 145.863,43.882142 135.75262,10.270772"
       id="path16" />
    <path
       inkscape:connector-curvature="0"
       style="fill:#5382a1;stroke-width:0.59722108"
       d="m 88.849902,213.21035 c 43.430958,2.34684 110.124148,-1.30208 111.703698,-18.64963 0,0 -3.03624,6.57632 -35.89337,11.79896 -37.06925,5.88879 -82.788925,5.20125 -109.905739,1.4272 6.5e-4,-5.5e-4 5.551157,3.8783 34.095411,5.42347"
       id="path18" />
  </g>
</svg>
