<svg width="259" height="281" viewBox="0 0 259 281" fill="none" xmlns="http://www.w3.org/2000/svg">
<path d="M67.2327 71.1898C67.621 69.187 69.187 67.621 71.1898 67.2327L174.313 47.2416C177.791 46.5674 180.848 49.6239 180.174 53.1018L160.183 156.225C159.794 158.228 158.228 159.794 156.225 160.183L53.1018 180.174C49.6239 180.848 46.5674 177.791 47.2416 174.313L67.2327 71.1898Z" fill="#C4C4C4"/>
<path d="M76.807 80.025C77.236 78.1028 78.7535 76.6115 80.6829 76.2161L164.326 59.0721C167.878 58.3441 170.999 61.5207 170.209 65.0596L151.608 148.39C151.179 150.312 149.662 151.804 147.732 152.199L64.0897 169.343C60.5376 170.071 57.4159 166.895 58.2059 163.356L76.807 80.025Z" fill="#515151"/>
<path d="M51.7756 190.706C48.4135 188.054 49.7232 182.679 53.9283 181.871L154.523 162.535C155.949 162.261 157.423 162.62 158.563 163.519L238.991 226.959C242.353 229.611 241.043 234.987 236.838 235.795L136.243 255.131C134.817 255.405 133.343 255.046 132.203 254.147L51.7756 190.706Z" fill="#C4C4C4"/>
<path d="M83.2219 192.765C80.3122 190.049 81.5869 185.188 85.4546 184.25L144.479 169.933C146.114 169.536 147.839 169.989 149.069 171.136L193.474 212.574C196.383 215.289 195.109 220.15 191.241 221.089L132.217 235.406C130.582 235.802 128.857 235.35 127.627 234.202L83.2219 192.765Z" fill="#847D7D"/>
<path d="M168.649 237.161C163.794 234.959 165.296 227.702 170.626 227.608L179.822 227.446C180.564 227.433 181.299 227.585 181.975 227.892L190.351 231.691C195.206 233.893 193.704 241.149 188.374 241.243L179.178 241.406C178.436 241.419 177.701 241.266 177.025 240.96L168.649 237.161Z" fill="#A0A0A0"/>
<line x1="92.915" y1="92.5073" x2="150.915" y2="82.5073" stroke="#C1BBBB"/>
<line x1="86.915" y1="127.507" x2="144.915" y2="117.507" stroke="#C1BBBB"/>
<line x1="92.915" y1="113.507" x2="150.915" y2="103.507" stroke="#C1BBBB"/>
<line x1="86.915" y1="148.507" x2="144.915" y2="138.507" stroke="#C1BBBB"/>
<line x1="93.3193" y1="187.615" x2="140.319" y2="226.615" stroke="#C1BBBB"/>
<line x1="96.8915" y1="194.512" x2="150.892" y2="182.512" stroke="#C1BBBB"/>
<line x1="103.892" y1="204.512" x2="157.892" y2="192.512" stroke="#C1BBBB"/>
<line x1="115.892" y1="212.512" x2="169.892" y2="200.512" stroke="#C1BBBB"/>
<line x1="121.892" y1="219.512" x2="175.892" y2="207.512" stroke="#C1BBBB"/>
<line x1="117.319" y1="181.615" x2="164.319" y2="220.615" stroke="#C1BBBB"/>
<line x1="104.319" y1="182.615" x2="151.319" y2="221.615" stroke="#C1BBBB"/>
<line x1="128.319" y1="180.615" x2="175.319" y2="219.615" stroke="#C1BBBB"/>
<line x1="138.319" y1="179.615" x2="185.319" y2="218.615" stroke="#C1BBBB"/>
<line x1="93.3193" y1="187.615" x2="140.319" y2="226.615" stroke="#C1BBBB"/>
<line x1="92.915" y1="92.5073" x2="150.915" y2="82.5073" stroke="#C1BBBB"/>
</svg>
