<svg width="237" height="110" viewBox="0 0 237 110" fill="none" xmlns="http://www.w3.org/2000/svg">
<rect y="16" width="233" height="81" rx="10" fill="#242424"/>
<path d="M34.9688 38.2812L25.3125 95.0469C24.6875 99.7656 23.0469 103.406 20.3906 105.969C17.7344 108.531 14.3281 109.75 10.1719 109.625C8.82812 109.594 7.125 109.266 5.0625 108.641L5.71875 104C7.4375 104.469 8.8125 104.703 9.84375 104.703C15.3125 104.828 18.625 101.531 19.7812 94.8125L29.4375 38.2812H34.9688ZM31.0312 23.6094C31.0938 22.5781 31.4844 21.6875 32.2031 20.9375C32.9531 20.1875 33.875 19.7969 34.9688 19.7656C36.0625 19.7344 36.9531 20.0938 37.6406 20.8438C38.3281 21.5938 38.6406 22.5156 38.5781 23.6094C38.4844 24.6719 38.0469 25.5625 37.2656 26.2812C36.5156 27 35.6094 27.375 34.5469 27.4062C33.4531 27.4375 32.5625 27.0937 31.875 26.375C31.2188 25.625 30.9375 24.7031 31.0312 23.6094ZM54.5938 89.625C51.8854 89.5833 49.5417 88.8333 47.5625 87.375C45.5833 85.8958 44.125 83.8958 43.1875 81.375C42.2708 78.8333 41.9479 76.0938 42.2188 73.1562L42.3125 72.0938C42.6042 68.9688 43.5312 66 45.0938 63.1875C46.6562 60.3542 48.6354 58.1979 51.0312 56.7188C53.4271 55.2188 55.9896 54.5 58.7188 54.5625C61.2396 54.6042 63.3646 55.2917 65.0938 56.625C66.8438 57.9583 68.1146 59.8125 68.9062 62.1875C69.6979 64.5625 69.9479 67.1875 69.6562 70.0625L69.4062 72.3438H46L45.9062 73.0938C45.5938 75.3646 45.7604 77.5417 46.4062 79.625C47.0521 81.6875 48.1042 83.3333 49.5625 84.5625C51.0417 85.7708 52.8125 86.3958 54.875 86.4375C56.875 86.5 58.6771 86.1146 60.2812 85.2812C61.8854 84.4479 63.3646 83.3333 64.7188 81.9375L66.9062 83.7188C65.3854 85.6771 63.5729 87.1667 61.4688 88.1875C59.3854 89.1875 57.0938 89.6667 54.5938 89.625ZM58.5312 57.75C55.8229 57.6458 53.3958 58.6042 51.25 60.625C49.1042 62.6458 47.4896 65.4896 46.4062 69.1562L66.0312 69.1875L66.125 68.7188C66.5 65.7604 65.9792 63.2188 64.5625 61.0938C63.1458 58.9479 61.1354 57.8333 58.5312 57.75ZM94.2188 58.3438C93.4062 58.1771 92.5833 58.0833 91.75 58.0625C89.375 58.0625 87.1979 58.7917 85.2188 60.25C83.2396 61.6875 81.9167 63.5208 81.25 65.75L77.25 89H73.5625L79.4375 55.1875H83.0938L81.9688 60.5625C83.1979 58.5625 84.6771 57.0417 86.4062 56C88.1562 54.9583 90.0729 54.4583 92.1562 54.5C92.8854 54.5 93.7396 54.6458 94.7188 54.9375L94.2188 58.3438ZM98.9062 89H95.1562L101.062 55.1875H104.781L98.9062 89ZM102.094 45.4062C102.198 44.0521 103.094 43.1979 104.781 42.8438C105.594 42.9896 106.167 43.25 106.5 43.625C106.854 43.9792 107.083 44.5729 107.188 45.4062C106.979 46.1979 106.677 46.7812 106.281 47.1562C105.885 47.5104 105.292 47.7708 104.5 47.9375C102.812 47.6875 102.01 46.8438 102.094 45.4062ZM113.156 89H109.406L117.75 41H121.5L113.156 89ZM136.938 43.5L146.219 83.5625L169.469 43.5H174.625L166.719 89H162.906L166.375 69.0312L170.094 49.3438L146.938 89H144L134.562 49.0312L131.344 69.2188L127.906 89H124.094L132 43.5H136.938ZM205.844 43.5H209.688L204.219 75.4688C203.615 79.6979 201.917 83.1458 199.125 85.8125C196.333 88.4583 192.854 89.7396 188.688 89.6562C184.771 89.5729 181.792 88.3646 179.75 86.0312C177.708 83.6771 176.875 80.4896 177.25 76.4688H181.062C180.75 79.5104 181.281 81.9062 182.656 83.6562C184.031 85.4062 186.125 86.3229 188.938 86.4062C191.833 86.4896 194.323 85.5417 196.406 83.5625C198.49 81.5833 199.812 78.9062 200.375 75.5312L205.844 43.5Z" fill="white"/>
</svg>
